<?xml version="1.0" encoding="utf-8"?>
<!-- Generator: Adobe Illustrator 24.0.2, SVG Export Plug-In . SVG Version: 6.00 Build 0)  -->
<svg version="1.1" xmlns="http://www.w3.org/2000/svg" xmlns:xlink="http://www.w3.org/1999/xlink" x="0px" y="0px"
	 viewBox="0 0 250 87.21" style="enable-background:new 0 0 250 87.21;" xml:space="preserve">
<style type="text/css">
	.st0{fill:#383C41;}
	.st1{fill:#F5F5F5;}
	.st2{fill:#768589;}
	.st3{fill:#FBD10D;}
</style>
<g id="BG_1_">
	<rect class="st0" width="250" height="87.21"/>
</g>
<g id="graphics">
	<g>
		<g>
			<path class="st1" d="M100.16,29.71h4.1v18.37h-4.1v-7.23h-7.31v7.23h-4.1V29.71h4.1v7.68h7.31V29.71z"/>
			<path class="st1" d="M124.24,45.55c-1.86,1.81-4.14,2.72-6.86,2.72c-2.72,0-5-0.91-6.86-2.72c-1.86-1.81-2.79-4.07-2.79-6.77
				c0-2.7,0.93-4.96,2.79-6.77c1.86-1.81,4.14-2.72,6.86-2.72c2.72,0,5,0.91,6.86,2.72c1.86,1.81,2.79,4.07,2.79,6.77
				C127.03,41.48,126.1,43.73,124.24,45.55z M122.85,38.79c0-1.64-0.53-3.04-1.58-4.19c-1.05-1.16-2.34-1.73-3.88-1.73
				c-1.53,0-2.83,0.58-3.88,1.73c-1.05,1.16-1.58,2.55-1.58,4.19c0,1.64,0.53,3.03,1.58,4.18c1.05,1.15,2.34,1.72,3.88,1.72
				c1.53,0,2.83-0.57,3.88-1.72C122.32,41.82,122.85,40.43,122.85,38.79z"/>
			<path class="st1" d="M146.95,36.52l-4.97,10.04h-2.44l-4.94-10.04v11.57h-4.1V29.71h5.55l4.73,10.09l4.76-10.09h5.52v18.37h-4.1
				V36.52z"/>
			<path class="st1" d="M168.82,29.71v3.65h-9.15v3.79h8.23v3.5h-8.23v3.81h9.44v3.63h-13.54V29.71H168.82z"/>
			<path class="st1" d="M192.36,31.35c1.29,1.1,1.93,2.78,1.93,5.05c0,2.27-0.66,3.93-1.99,4.98c-1.32,1.05-3.34,1.58-6.06,1.58
				h-2.44v5.13h-4.1V29.71h6.49C189.02,29.71,191.07,30.26,192.36,31.35z M189.35,38.58c0.49-0.55,0.74-1.36,0.74-2.42
				c0-1.06-0.32-1.81-0.96-2.26c-0.64-0.45-1.63-0.67-2.98-0.67h-2.34v6.18h2.76C187.93,39.41,188.86,39.13,189.35,38.58z"/>
			<path class="st1" d="M210.75,29.71v3.65h-9.15v3.79h8.23v3.5h-8.23v3.81h9.44v3.63H197.5V29.71H210.75z"/>
			<path class="st1" d="M222.47,33.26v14.83h-4.1V33.26h-5.2v-3.55h14.51v3.55H222.47z"/>
			<path class="st1" d="M234.81,33.38c-0.39,0.32-0.59,0.75-0.59,1.29c0,0.54,0.24,0.96,0.72,1.28c0.48,0.32,1.6,0.69,3.34,1.12
				c1.74,0.43,3.1,1.07,4.06,1.93c0.96,0.86,1.45,2.11,1.45,3.76c0,1.65-0.62,2.98-1.85,4.01c-1.24,1.03-2.86,1.54-4.88,1.54
				c-2.91,0-5.53-1.08-7.86-3.23l2.44-3c1.98,1.73,3.81,2.6,5.49,2.6c0.75,0,1.35-0.16,1.77-0.49c0.43-0.32,0.64-0.76,0.64-1.31
				c0-0.55-0.23-0.99-0.68-1.31c-0.46-0.32-1.36-0.65-2.71-0.99c-2.14-0.51-3.7-1.17-4.69-1.98c-0.99-0.81-1.48-2.09-1.48-3.84
				c0-1.74,0.63-3.09,1.88-4.04c1.25-0.95,2.82-1.42,4.69-1.42c1.23,0,2.45,0.21,3.68,0.63c1.23,0.42,2.3,1.02,3.21,1.79l-2.08,3
				c-1.6-1.21-3.24-1.81-4.94-1.81C235.75,32.89,235.21,33.05,234.81,33.38z"/>
		</g>
	</g>
	<g>
		<g>
			<path class="st2" d="M120.38,53.35v0.77h1.71v0.72h-1.71v5.05h-0.87v-5.05h-0.77v-0.72h0.77v-0.66c0-1.3,0.92-2,1.91-2
				c0.45,0.01,0.92,0.15,1.28,0.42l-0.36,0.71c-0.27-0.19-0.6-0.31-0.9-0.31C120.85,52.29,120.38,52.66,120.38,53.35z"/>
			<path class="st2" d="M123.87,55.26c0.4-0.87,1.13-1.34,2.14-1.36v0.89c-1.25-0.02-2.03,0.76-2.14,1.93v3.17h-0.88v-5.96h0.88
				V55.26z"/>
			<path class="st2" d="M128.2,52.23c0,0.35-0.25,0.61-0.58,0.61c-0.33,0-0.58-0.26-0.58-0.61c0-0.35,0.25-0.61,0.58-0.61
				C127.95,51.62,128.2,51.88,128.2,52.23z M127.19,59.9v-5.96h0.87v5.96H127.19z"/>
			<path class="st2" d="M135.34,57.26h-4.86c0.16,1.16,1.01,1.9,2.16,1.9c0.74,0,1.38-0.26,1.84-0.75l0.49,0.52
				c-0.57,0.63-1.4,0.99-2.4,0.99c-1.75,0-2.96-1.23-2.96-3.01c0-1.77,1.22-3.01,2.95-3.01C134.48,53.91,135.43,55.24,135.34,57.26z
				 M134.55,56.54c-0.06-1.14-0.83-1.87-1.99-1.87c-1.13,0-1.94,0.73-2.08,1.87H134.55z"/>
			<path class="st2" d="M142.3,56.22v3.67h-0.88v-3.44c0-1.05-0.63-1.67-1.68-1.67c-1.18,0.01-1.9,0.78-2,1.91v3.2h-0.88v-5.96h0.88
				v1.31c0.42-0.9,1.22-1.33,2.31-1.35C141.47,53.91,142.3,54.79,142.3,56.22z"/>
			<path class="st2" d="M149.74,59.9h-0.88v-1.28c-0.44,0.84-1.25,1.32-2.32,1.32c-1.7,0-2.87-1.25-2.87-3.03
				c0-1.79,1.18-3.02,2.86-3.02c1.06,0,1.89,0.49,2.33,1.33v-3.72h0.88V59.9z M148.86,56.94c0-1.3-0.89-2.24-2.15-2.24
				c-1.27,0-2.16,0.94-2.16,2.24c0,1.29,0.89,2.22,2.16,2.22C147.97,59.15,148.86,58.22,148.86,56.94z"/>
			<path class="st2" d="M152,59.9v-8.39h0.88v8.39H152z"/>
			<path class="st2" d="M156.99,60.75c-0.37,0.92-0.99,1.39-1.79,1.39c-0.5,0-0.89-0.15-1.25-0.44l0.37-0.74
				c0.27,0.19,0.54,0.28,0.84,0.28c0.46,0,0.85-0.28,1.09-0.84l0.25-0.55l-2.46-5.91h0.93l1.98,4.92l1.89-4.92h0.9L156.99,60.75z"/>
			<path class="st2" d="M167.55,58.98c-0.47,0.64-1.23,0.96-2.18,0.96c-1.23,0-2.02-0.79-2.02-1.82c0-1.04,0.82-1.7,2.23-1.71h1.96
				v-0.35c0-0.87-0.54-1.39-1.59-1.39c-0.66,0-1.27,0.25-1.89,0.68l-0.37-0.64c0.77-0.51,1.41-0.8,2.43-0.8
				c1.47,0,2.28,0.78,2.29,2.06l0.01,3.93h-0.86V58.98z M167.54,57.84v-0.71h-1.85c-1,0-1.51,0.31-1.51,0.96
				c0,0.66,0.53,1.08,1.37,1.08C166.55,59.17,167.32,58.67,167.54,57.84z"/>
			<path class="st2" d="M175.83,56.22v3.67h-0.88v-3.44c0-1.05-0.63-1.67-1.68-1.67c-1.18,0.01-1.9,0.78-2,1.91v3.2h-0.88v-5.96
				h0.88v1.31c0.42-0.9,1.22-1.33,2.31-1.35C174.99,53.91,175.83,54.79,175.83,56.22z"/>
			<path class="st2" d="M178.8,52.23c0,0.35-0.25,0.61-0.58,0.61c-0.33,0-0.58-0.26-0.58-0.61c0-0.35,0.25-0.61,0.58-0.61
				C178.55,51.62,178.8,51.88,178.8,52.23z M177.79,59.9v-5.96h0.87v5.96H177.79z"/>
			<path class="st2" d="M190.66,56.22v3.67h-0.88v-3.44c0-1.06-0.62-1.68-1.65-1.68c-1.23,0.03-1.94,0.92-1.94,2.19v2.93h-0.89
				v-3.44c0-1.06-0.61-1.68-1.65-1.68c-1.22,0.03-1.96,0.92-1.96,2.19v2.93h-0.87v-5.96h0.87v1.35c0.4-0.93,1.2-1.37,2.27-1.38
				c1.12,0,1.89,0.58,2.14,1.56c0.37-1.05,1.21-1.55,2.35-1.56C189.83,53.91,190.66,54.79,190.66,56.22z"/>
			<path class="st2" d="M196.31,58.98c-0.47,0.64-1.23,0.96-2.18,0.96c-1.23,0-2.02-0.79-2.02-1.82c0-1.04,0.82-1.7,2.23-1.71h1.96
				v-0.35c0-0.87-0.54-1.39-1.59-1.39c-0.66,0-1.27,0.25-1.89,0.68l-0.37-0.64c0.77-0.51,1.41-0.8,2.43-0.8
				c1.47,0,2.28,0.78,2.29,2.06l0.01,3.93h-0.86V58.98z M196.29,57.84v-0.71h-1.85c-1,0-1.52,0.31-1.52,0.96
				c0,0.66,0.53,1.08,1.37,1.08C195.3,59.17,196.07,58.67,196.29,57.84z"/>
			<path class="st2" d="M199.19,59.9v-8.39h0.88v8.39H199.19z"/>
			<path class="st2" d="M205.75,54.45l-0.34,0.7c-0.46-0.29-1.06-0.49-1.62-0.49c-0.67,0-1.18,0.24-1.18,0.79
				c0,1.32,3.32,0.64,3.32,2.78c0,1.18-1.04,1.7-2.18,1.7c-0.85,0-1.72-0.29-2.28-0.84l0.34-0.67c0.51,0.48,1.28,0.76,1.98,0.76
				c0.7,0,1.27-0.26,1.28-0.85c0.03-1.44-3.3-0.7-3.29-2.81c0-1.14,0.98-1.62,2.07-1.62C204.57,53.91,205.26,54.11,205.75,54.45z"/>
		</g>
	</g>
	<g>
		<path class="st3" d="M19.69,17.76c-0.38,0.63,0.13,1.23,0.71,1.22c0.42-0.01,0.86,0.05,1.29,0.18c0.43,0.13,0.83,0.33,1.17,0.57
			c0.48,0.33,1.23,0.12,1.27-0.61c0.07-1.32-0.54-2.47-1.58-2.79C21.52,16.01,20.37,16.63,19.69,17.76z"/>
		<path class="st3" d="M63.23,20.12c0.39-0.15,0.82-0.24,1.27-0.26c0.45-0.02,0.89,0.03,1.29,0.14c0.56,0.15,1.2-0.31,0.99-1.01
			c-0.38-1.26-1.34-2.14-2.42-2.09c-1.08,0.05-1.96,1.02-2.21,2.31C62.01,19.93,62.69,20.33,63.23,20.12z"/>
		<path class="st3" d="M79.45,70.68c0.63-0.98,0.95-2.11,0.95-3.23c0-3.22-2.51-6.13-6.92-6.43c-0.06-0.02-0.13-0.03-0.19-0.04
			c-5.9-6.05-8.61-20.71-7-29.53c5.37-0.42,9.15-3.57,10.56-8.96c0.62-2.38-0.48-4.22-2.77-4.65c-1.12-0.21-1.87-0.88-2.28-2.04
			c-0.01-0.04-0.03-0.07-0.04-0.11c-2.17-4.8-5.92-5.4-8.4-5.62c0-0.01,0.01-0.03,0-0.03c-0.9,0.05-2.01,0.05-1.42-0.61
			c1.59-1.76,1.87-2.59,2.05-3.23c0.4-1.41-1.1-2.34-2.22-2.15c-6.17,1.02-12.23,6.53-15.43,14.01c-0.42,0.98-1.13,2.65-2.02,4.81
			c-1.13-2.71-3.43-9.25-10.05-12.69c-2.92-1.52-5.79-1.99-8.78-1.81c-2.5,0.15-7.7,0.47-10.51,6.75c-0.09,0.09-0.77,0.66-3.72,0.98
			c-1.81,0.19-3.49,0.18-3.51,0.18c-0.01,0-0.01,0-0.02,0c-0.78,0-1.42,0.63-1.44,1.42c-0.1,8.15,3.57,11.7,6.32,13.21
			c0,0,0.01,0,0.01,0.01c1.66,1,3.75,1.23,5.7,1.23c1.05,0,2.01-0.07,2.73-0.14c0.54,3.41,1.54,17.18-5.28,29
			c-4.38,0.33-6.84,3.24-6.84,6.43c0,1.12,0.32,2.25,0.95,3.23c0,0,1.55,2.87,6.27,2.87c0.82,0,13.63,0,15.43,0
			c0.79,0,1.44-0.64,1.44-1.44c0-0.79-0.64-1.44-1.44-1.44c-1.79,0-14.33,0-15.9,0c-2.68,0-3.87-1.62-3.87-3.23
			c0-2.05,1.79-3.49,4.53-3.58c1.26,0.28,2.79,0.99,3.41,2.78c0.26,0.75,1.08,1.14,1.83,0.88c0.75-0.26,1.14-1.08,0.88-1.83
			c-0.65-1.84-1.95-3.23-3.75-4.05c6.39-11.67,5.91-25.13,5.21-29.73c-0.13-0.85-0.46-1.92-0.53-2.06
			c-0.26-0.58-0.89-0.94-1.54-0.83c-1.25,0.2-4.64,0.56-7-0.23c-0.07-0.02-0.13-0.05-0.2-0.07c-2.57-1.12-4.28-3.33-5.04-6.47
			c0.93-0.21,2.28-0.97,3.16-3.45c2.71-0.43,4.25-1.22,4.8-2.47c1.32-2.99,3.21-4.2,5.3-4.72c1.08-0.27,3.86-0.65,6.22,0.94
			c0.66,0.44,1.19,1.17,1.51,2.09c0.53,1.55,0.15,3.27-1.09,4.86c-3.2,4.12-4.01,6.22-3.71,8.96c0.19,1.72,1.13,3.14,2.65,3.98
			c2.09,1.16,4.82,1.2,6.91-0.09c2.25-1.39,3.55-3.85,4.18-8.02c0-0.01,0-0.02,0-0.02c-0.55-1.4-1.41-3.31-2.47-4.65
			c0.08,1.16,0.25,2.62-0.09,4.17c-0.69,3.11-1.12,4.67-2.87,5.94c-1.35,0.98-3.14,0.79-4.26,0.17c-0.7-0.39-1.1-0.99-1.18-1.78
			c-0.16-1.48,0.01-2.87,3.13-6.89c1.97-2.53,2.59-5.74,1.09-8.57c0.36,0.18,0.77,0.43,1.17,0.71v0c0,0,2,1.27,4.1,3.97
			c0.61,0.78,2.74,3.59,4.63,9.28c-4.34,10.78-10.69,27.72-10.69,34.61c0,6.78,5.51,12.29,12.29,12.29
			c6.78,0,12.29-5.51,12.29-12.29c0-3.73-2.22-11.67-6.6-23.62c-1-2.73-2.02-5.4-2.97-7.83l-1.46,4.15
			c3.83,10.06,8.15,22.61,8.15,27.3c0,5.2-4.23,9.42-9.42,9.42c-5.2,0-9.42-4.23-9.42-9.42c0-7.27,8.17-27.79,10.91-34.57
			c0,0,0,0,0,0c1.53-3.78,2.72-6.58,3.11-7.48C51,14.44,55.12,9.3,60.13,7.45c-3.75,3.59-2.4,5.47-1.03,5.47c1.85,0,2.23,0,3.71,0
			c2.31,0.19,4.72,0.45,6.3,3.91c0.62,1.7,1.79,2.92,3.34,3.52c-0.34,0.84-0.59,2.29,1.07,3.04c-1.26,2.98-4.03,5.76-10.03,5.16
			c-0.79-0.08-1.49,0.5-1.57,1.29c-0.08,0.79,0.5,1.49,1.29,1.57c0.06,0.01,0.11,0.01,0.17,0.01c-0.74,4.58-0.47,10.57,0.75,16.29
			c1.27,5.94,3.42,10.88,6.14,14.19c-1.54,0.84-2.66,2.13-3.24,3.8c-0.33,0.94,0.37,1.91,1.35,1.91c0.59,0,1.15-0.37,1.36-0.96
			c0.62-1.78,2.14-2.49,3.39-2.78c5.94,0.28,5.68,6.8,0.53,6.8c-2.4,0-14.12,0-16.46,0c-0.79,0-1.44,0.64-1.44,1.44
			c0,0.79,0.64,1.44,1.44,1.44c2.35,0,11.92,0,16.46,0C78.2,73.55,79.45,70.68,79.45,70.68z"/>
	</g>
</g>
</svg>
